<mxfile host="app.diagrams.net" modified="2024-06-10T10:46:11.608Z" agent="Mozilla/5.0 (Macintosh; Intel Mac OS X 10_15_7) AppleWebKit/537.36 (KHTML, like Gecko) Chrome/125.0.0.0 Safari/537.36" etag="AYg7T0O5FLXSkEUD2B9B" version="24.5.2" type="device">
  <diagram name="физическая схема" id="ZswpcD6ZOqLPuIG_CMw2">
    <mxGraphModel dx="1194" dy="654" grid="0" gridSize="10" guides="1" tooltips="1" connect="1" arrows="1" fold="1" page="1" pageScale="1" pageWidth="827" pageHeight="1169" math="0" shadow="0">
      <root>
        <mxCell id="0" />
        <mxCell id="1" parent="0" />
        <mxCell id="-ZnOL-KHzdTpSHPLVJMD-1" value="" style="verticalLabelPosition=bottom;verticalAlign=top;html=1;shape=mxgraph.basic.rect;fillColor2=none;strokeWidth=1;size=20;indent=5;fillColor=none;dashed=1;" vertex="1" parent="1">
          <mxGeometry x="11" y="20" width="630" height="490" as="geometry" />
        </mxCell>
        <mxCell id="dq0pVFv1mGKvbwYltrtG-32" value="" style="verticalLabelPosition=bottom;verticalAlign=top;html=1;shape=mxgraph.basic.rect;fillColor2=none;strokeWidth=1;size=20;indent=5;fillColor=none;dashed=1;" parent="1" vertex="1">
          <mxGeometry x="21" y="30" width="280" height="460" as="geometry" />
        </mxCell>
        <mxCell id="dq0pVFv1mGKvbwYltrtG-22" style="edgeStyle=none;rounded=0;orthogonalLoop=1;jettySize=auto;html=1;endArrow=none;endFill=0;" parent="1" source="dq0pVFv1mGKvbwYltrtG-1" target="dq0pVFv1mGKvbwYltrtG-7" edge="1">
          <mxGeometry relative="1" as="geometry" />
        </mxCell>
        <mxCell id="dq0pVFv1mGKvbwYltrtG-27" style="edgeStyle=none;rounded=0;orthogonalLoop=1;jettySize=auto;html=1;endArrow=none;endFill=0;" parent="1" source="dq0pVFv1mGKvbwYltrtG-1" target="dq0pVFv1mGKvbwYltrtG-26" edge="1">
          <mxGeometry relative="1" as="geometry" />
        </mxCell>
        <mxCell id="dq0pVFv1mGKvbwYltrtG-1" value="" style="verticalLabelPosition=bottom;sketch=0;aspect=fixed;html=1;verticalAlign=top;strokeColor=none;align=center;outlineConnect=0;shape=mxgraph.citrix.router;" parent="1" vertex="1">
          <mxGeometry x="616" y="313.5" width="55" height="36.5" as="geometry" />
        </mxCell>
        <mxCell id="dq0pVFv1mGKvbwYltrtG-8" value="" style="rounded=0;orthogonalLoop=1;jettySize=auto;html=1;strokeColor=default;endArrow=none;endFill=0;" parent="1" source="dq0pVFv1mGKvbwYltrtG-3" target="dq0pVFv1mGKvbwYltrtG-5" edge="1">
          <mxGeometry relative="1" as="geometry" />
        </mxCell>
        <mxCell id="-ZnOL-KHzdTpSHPLVJMD-7" value="&lt;span style=&quot;font-weight: 700; text-decoration-line: underline;&quot;&gt;порты:&amp;nbsp;&lt;/span&gt;&lt;div&gt;&lt;u&gt;&lt;b&gt;TCP/UDP&lt;/b&gt;&lt;/u&gt;&lt;div&gt;&lt;u&gt;&lt;b&gt;47500,&amp;nbsp;&lt;/b&gt;&lt;/u&gt;&lt;/div&gt;&lt;div&gt;&lt;b&gt;&lt;u&gt;47100,&lt;/u&gt;&lt;br&gt;&lt;/b&gt;&lt;/div&gt;&lt;div&gt;&lt;u&gt;&lt;b&gt;10800,&amp;nbsp;&lt;/b&gt;&lt;br&gt;&lt;/u&gt;&lt;/div&gt;&lt;div&gt;&lt;span style=&quot;font-weight: 700; text-decoration-line: underline;&quot;&gt;22(ssh)&lt;/span&gt;&lt;u&gt;&lt;b&gt;&lt;br&gt;&lt;/b&gt;&lt;/u&gt;&lt;/div&gt;&lt;/div&gt;" style="edgeLabel;html=1;align=center;verticalAlign=middle;resizable=0;points=[];" vertex="1" connectable="0" parent="dq0pVFv1mGKvbwYltrtG-8">
          <mxGeometry x="0.3571" y="1" relative="1" as="geometry">
            <mxPoint as="offset" />
          </mxGeometry>
        </mxCell>
        <mxCell id="dq0pVFv1mGKvbwYltrtG-11" style="edgeStyle=none;rounded=0;orthogonalLoop=1;jettySize=auto;html=1;endArrow=none;endFill=0;" parent="1" source="dq0pVFv1mGKvbwYltrtG-3" target="dq0pVFv1mGKvbwYltrtG-7" edge="1">
          <mxGeometry relative="1" as="geometry" />
        </mxCell>
        <mxCell id="-ZnOL-KHzdTpSHPLVJMD-4" value="порты:&amp;nbsp;&lt;div&gt;443 (tls)&amp;nbsp;&lt;div&gt;&lt;div&gt;22(ssh)&lt;/div&gt;&lt;/div&gt;&lt;/div&gt;" style="edgeLabel;html=1;align=center;verticalAlign=middle;resizable=0;points=[];fontStyle=5" vertex="1" connectable="0" parent="dq0pVFv1mGKvbwYltrtG-11">
          <mxGeometry x="-0.6305" y="1" relative="1" as="geometry">
            <mxPoint as="offset" />
          </mxGeometry>
        </mxCell>
        <mxCell id="dq0pVFv1mGKvbwYltrtG-3" value="" style="verticalLabelPosition=bottom;html=1;verticalAlign=top;strokeWidth=1;align=center;outlineConnect=0;dashed=0;outlineConnect=0;shape=mxgraph.aws3d.dataServer;strokeColor=#5E5E5E;aspect=fixed;" parent="1" vertex="1">
          <mxGeometry x="141" y="150" width="69.62" height="60" as="geometry" />
        </mxCell>
        <mxCell id="dq0pVFv1mGKvbwYltrtG-4" value="&lt;div&gt;Узел 1&lt;/div&gt;" style="text;strokeColor=none;align=center;fillColor=none;html=1;verticalAlign=middle;whiteSpace=wrap;rounded=0;" parent="1" vertex="1">
          <mxGeometry x="71" y="165" width="60" height="30" as="geometry" />
        </mxCell>
        <mxCell id="dq0pVFv1mGKvbwYltrtG-5" value="" style="verticalLabelPosition=bottom;html=1;verticalAlign=top;strokeWidth=1;align=center;outlineConnect=0;dashed=0;outlineConnect=0;shape=mxgraph.aws3d.dataServer;strokeColor=#5E5E5E;aspect=fixed;" parent="1" vertex="1">
          <mxGeometry x="141" y="350" width="69.62" height="60" as="geometry" />
        </mxCell>
        <mxCell id="dq0pVFv1mGKvbwYltrtG-6" value="&lt;div&gt;Узел 2&lt;/div&gt;" style="text;strokeColor=none;align=center;fillColor=none;html=1;verticalAlign=middle;whiteSpace=wrap;rounded=0;" parent="1" vertex="1">
          <mxGeometry x="71" y="365" width="60" height="30" as="geometry" />
        </mxCell>
        <mxCell id="dq0pVFv1mGKvbwYltrtG-7" value="" style="image;points=[];aspect=fixed;html=1;align=center;shadow=0;dashed=0;image=img/lib/allied_telesis/switch/Switch_48_port_L2.svg;" parent="1" vertex="1">
          <mxGeometry x="313" y="245.1" width="78" height="52.8" as="geometry" />
        </mxCell>
        <mxCell id="dq0pVFv1mGKvbwYltrtG-9" value="&lt;div&gt;Прямое соединение узлов через LAN2 порт&lt;/div&gt;" style="text;strokeColor=none;align=center;fillColor=none;html=1;verticalAlign=middle;whiteSpace=wrap;rounded=0;" parent="1" vertex="1">
          <mxGeometry x="31" y="243.5" width="130" height="30" as="geometry" />
        </mxCell>
        <mxCell id="dq0pVFv1mGKvbwYltrtG-12" style="edgeStyle=none;rounded=0;orthogonalLoop=1;jettySize=auto;html=1;entryX=0;entryY=0.741;entryDx=0;entryDy=0;entryPerimeter=0;endArrow=none;endFill=0;" parent="1" source="dq0pVFv1mGKvbwYltrtG-5" target="dq0pVFv1mGKvbwYltrtG-7" edge="1">
          <mxGeometry relative="1" as="geometry" />
        </mxCell>
        <mxCell id="-ZnOL-KHzdTpSHPLVJMD-6" value="&lt;span style=&quot;text-decoration-line: underline;&quot;&gt;порты:&amp;nbsp;&lt;/span&gt;&lt;div&gt;443 (tls)&amp;nbsp;&lt;div&gt;22(ssh)&lt;/div&gt;&lt;/div&gt;" style="edgeLabel;html=1;align=center;verticalAlign=middle;resizable=0;points=[];fontStyle=1" vertex="1" connectable="0" parent="dq0pVFv1mGKvbwYltrtG-12">
          <mxGeometry x="-0.2551" y="1" relative="1" as="geometry">
            <mxPoint x="-1" as="offset" />
          </mxGeometry>
        </mxCell>
        <mxCell id="dq0pVFv1mGKvbwYltrtG-13" value="Подключение к LAN Заказчика через порт LAN1" style="text;strokeColor=none;align=center;fillColor=none;html=1;verticalAlign=middle;whiteSpace=wrap;rounded=0;" parent="1" vertex="1">
          <mxGeometry x="202" y="220.5" width="80" height="100" as="geometry" />
        </mxCell>
        <mxCell id="dq0pVFv1mGKvbwYltrtG-16" value="LAN Заказчика" style="text;strokeColor=none;align=center;fillColor=none;html=1;verticalAlign=middle;whiteSpace=wrap;rounded=0;" parent="1" vertex="1">
          <mxGeometry x="341" y="223.25" width="130" height="30" as="geometry" />
        </mxCell>
        <mxCell id="dq0pVFv1mGKvbwYltrtG-17" value="" style="image;points=[];aspect=fixed;html=1;align=center;shadow=0;dashed=0;image=img/lib/allied_telesis/computer_and_terminals/Server_Desktop.svg;" parent="1" vertex="1">
          <mxGeometry x="471" y="70" width="42.599999999999994" height="54" as="geometry" />
        </mxCell>
        <mxCell id="dq0pVFv1mGKvbwYltrtG-18" style="edgeStyle=none;rounded=0;orthogonalLoop=1;jettySize=auto;html=1;entryX=0.329;entryY=0.963;entryDx=0;entryDy=0;entryPerimeter=0;endArrow=none;endFill=0;" parent="1" target="dq0pVFv1mGKvbwYltrtG-17" edge="1">
          <mxGeometry relative="1" as="geometry">
            <mxPoint x="401" y="270" as="sourcePoint" />
            <Array as="points">
              <mxPoint x="485" y="270" />
            </Array>
          </mxGeometry>
        </mxCell>
        <mxCell id="dq0pVFv1mGKvbwYltrtG-19" value="" style="image;points=[];aspect=fixed;html=1;align=center;shadow=0;dashed=0;image=img/lib/allied_telesis/computer_and_terminals/Server_Desktop.svg;" parent="1" vertex="1">
          <mxGeometry x="531" y="70" width="42.599999999999994" height="54" as="geometry" />
        </mxCell>
        <mxCell id="dq0pVFv1mGKvbwYltrtG-20" style="edgeStyle=none;rounded=0;orthogonalLoop=1;jettySize=auto;html=1;endArrow=none;endFill=0;" parent="1" source="dq0pVFv1mGKvbwYltrtG-19" edge="1">
          <mxGeometry relative="1" as="geometry">
            <mxPoint x="401" y="270" as="targetPoint" />
            <Array as="points">
              <mxPoint x="551" y="270" />
            </Array>
          </mxGeometry>
        </mxCell>
        <mxCell id="dq0pVFv1mGKvbwYltrtG-21" value="&lt;div&gt;Рабочие станции сети Заказчика&lt;/div&gt;" style="text;strokeColor=none;align=center;fillColor=none;html=1;verticalAlign=middle;whiteSpace=wrap;rounded=0;" parent="1" vertex="1">
          <mxGeometry x="461" y="30" width="130" height="30" as="geometry" />
        </mxCell>
        <mxCell id="dq0pVFv1mGKvbwYltrtG-23" value="Пограничный маршрутизатор в глобальную сеть" style="text;strokeColor=none;align=center;fillColor=none;html=1;verticalAlign=middle;whiteSpace=wrap;rounded=0;" parent="1" vertex="1">
          <mxGeometry x="581" y="365" width="130" height="30" as="geometry" />
        </mxCell>
        <mxCell id="dq0pVFv1mGKvbwYltrtG-26" value="" style="image;sketch=0;aspect=fixed;html=1;points=[];align=center;fontSize=12;image=img/lib/mscae/Azure_Cache_for_Redis.svg;" parent="1" vertex="1">
          <mxGeometry x="751" y="306.75" width="50" height="50" as="geometry" />
        </mxCell>
        <mxCell id="dq0pVFv1mGKvbwYltrtG-28" value="Облачная БД" style="text;strokeColor=none;align=center;fillColor=none;html=1;verticalAlign=middle;whiteSpace=wrap;rounded=0;" parent="1" vertex="1">
          <mxGeometry x="711" y="267.9" width="130" height="30" as="geometry" />
        </mxCell>
        <mxCell id="dq0pVFv1mGKvbwYltrtG-29" value="&lt;div&gt;&lt;b&gt;Кластер DAMASK&lt;/b&gt;&lt;/div&gt;" style="text;strokeColor=none;align=center;fillColor=none;html=1;verticalAlign=middle;whiteSpace=wrap;rounded=0;" parent="1" vertex="1">
          <mxGeometry x="21" y="30" width="130" height="30" as="geometry" />
        </mxCell>
        <mxCell id="-ZnOL-KHzdTpSHPLVJMD-2" value="&lt;b&gt;LAN заказчика&lt;/b&gt;" style="text;strokeColor=none;align=center;fillColor=none;html=1;verticalAlign=middle;whiteSpace=wrap;rounded=0;" vertex="1" parent="1">
          <mxGeometry x="511" y="480" width="130" height="30" as="geometry" />
        </mxCell>
      </root>
    </mxGraphModel>
  </diagram>
</mxfile>
